<svg xmlns="http://www.w3.org/2000/svg" xmlns:xlink="http://www.w3.org/1999/xlink" viewBox="0 0 603 417"><defs><clipPath id="a" transform="translate(96 1)"><rect x="3" y="172" width="21" height="26" style="fill:none"/></clipPath><clipPath id="d" transform="translate(96 1)"><rect x="28" y="172" width="21" height="26" style="fill:none"/></clipPath><clipPath id="g" transform="translate(96 1)"><rect x="53" y="172" width="21" height="26" style="fill:none"/></clipPath><clipPath id="h" transform="translate(96 1)"><rect x="3" y="202" width="21" height="26" style="fill:none"/></clipPath><clipPath id="k" transform="translate(96 1)"><rect x="28" y="202" width="21" height="26" style="fill:none"/></clipPath><clipPath id="n" transform="translate(96 1)"><rect x="53" y="202" width="21" height="26" style="fill:none"/></clipPath><clipPath id="o" transform="translate(96 1)"><rect x="-14" y="323" width="21" height="26" style="fill:none"/></clipPath><clipPath id="p" transform="translate(96 1)"><rect x="10" y="323" width="21" height="26" style="fill:none"/></clipPath><clipPath id="q" transform="translate(96 1)"><rect x="34" y="323" width="21" height="26" style="fill:none"/></clipPath><clipPath id="r" transform="translate(96 1)"><rect x="135" y="172" width="21" height="26" style="fill:none"/></clipPath><clipPath id="u" transform="translate(96 1)"><rect x="110" y="172" width="21" height="26" style="fill:none"/></clipPath><clipPath id="x" transform="translate(96 1)"><rect x="85" y="172" width="21" height="26" style="fill:none"/></clipPath><clipPath id="y" transform="translate(96 1)"><rect x="135" y="202" width="21" height="26" style="fill:none"/></clipPath><clipPath id="ab" transform="translate(96 1)"><rect x="110" y="202" width="21" height="26" style="fill:none"/></clipPath><clipPath id="ae" transform="translate(96 1)"><rect x="85" y="202" width="21" height="26" style="fill:none"/></clipPath><clipPath id="af" transform="translate(96 1)"><rect x="114" y="323" width="21" height="26" style="fill:none"/></clipPath><clipPath id="ag" transform="translate(96 1)"><rect x="90" y="323" width="21" height="26" style="fill:none"/></clipPath><clipPath id="ah" transform="translate(96 1)"><rect x="66" y="323" width="21" height="26" style="fill:none"/></clipPath><clipPath id="ai" transform="translate(96 1)"><rect x="3" y="294" width="10" height="13" style="fill:none"/></clipPath><clipPath id="al" transform="translate(96 1)"><rect x="3" y="280" width="10" height="13" style="fill:none"/></clipPath><clipPath id="ao" transform="translate(96 1)"><rect x="19" y="294" width="10" height="13" style="fill:none"/></clipPath><clipPath id="ar" transform="translate(96 1)"><rect x="19" y="280" width="10" height="13" style="fill:none"/></clipPath><clipPath id="au" transform="translate(96 1)"><rect x="52" y="294" width="10" height="13" style="fill:none"/></clipPath><clipPath id="ax" transform="translate(96 1)"><rect x="52" y="280" width="10" height="13" style="fill:none"/></clipPath><clipPath id="ba" transform="translate(96 1)"><rect x="36" y="294" width="10" height="13" style="fill:none"/></clipPath><clipPath id="bd" transform="translate(96 1)"><rect x="36" y="280" width="10" height="13" style="fill:none"/></clipPath><clipPath id="bg" transform="translate(96 1)"><rect x="423" y="6" width="30" height="30" style="fill:none"/></clipPath><clipPath id="bi" transform="translate(96 1)"><rect x="458" y="6" width="30" height="30" style="fill:none"/></clipPath><clipPath id="bk" transform="translate(96 1)"><rect x="423" y="40" width="30" height="30" style="fill:none"/></clipPath><clipPath id="bm" transform="translate(96 1)"><rect x="458" y="40" width="30" height="30" style="fill:none"/></clipPath><clipPath id="bo" transform="translate(96 1)"><rect x="418" y="111" width="24" height="32" style="fill:none"/></clipPath></defs><title>assets</title><path d="M-93-1h26a3,3,0,0,1,3,3V28a3,3,0,0,1-3,3H-93a3,3,0,0,1-3-3V2A3,3,0,0,1-93-1Z" transform="translate(96 1)" style="fill:#878787;opacity:0.18000000715255737;isolation:isolate"/><rect x="96" y="1" width="507" height="416" style="fill:#f7f7f7"/><path d="M7,5H27a0.94,0.94,0,0,1,1,1V26a0.94,0.94,0,0,1-1,1H7a0.94,0.94,0,0,1-1-1V6A0.94,0.94,0,0,1,7,5Z" transform="translate(96 1)" style="fill:#fdfdfd"/><path d="M7.5,4.5h19a2,2,0,0,1,2,2v19a2,2,0,0,1-2,2H7.5a2,2,0,0,1-2-2V6.5A2,2,0,0,1,7.5,4.5Z" transform="translate(96 1)" style="fill:none;stroke:#e6e6e6"/><rect x="100" y="5" width="26" height="24" style="fill:none"/><path d="M41,5H61a0.94,0.94,0,0,1,1,1V26a0.94,0.94,0,0,1-1,1H41a0.94,0.94,0,0,1-1-1V6A0.94,0.94,0,0,1,41,5Z" transform="translate(96 1)" style="fill:#fff"/><path d="M41.5,4.5h19a2,2,0,0,1,2,2v19a2,2,0,0,1-2,2h-19a2,2,0,0,1-2-2V6.5A2,2,0,0,1,41.5,4.5Z" transform="translate(96 1)" style="fill:none;stroke:#e6e6e6"/><rect x="134" y="5" width="26" height="24" style="fill:none"/><path d="M75,5H95a0.94,0.94,0,0,1,1,1V26a0.94,0.94,0,0,1-1,1H75a0.94,0.94,0,0,1-1-1V6A0.94,0.94,0,0,1,75,5Z" transform="translate(96 1)" style="fill:#fcfcfc"/><path d="M75.5,4.5h19a2,2,0,0,1,2,2v19a2,2,0,0,1-2,2h-19a2,2,0,0,1-2-2V6.5A2,2,0,0,1,75.5,4.5Z" transform="translate(96 1)" style="fill:none;stroke:#efefef"/><rect x="168" y="5" width="26" height="24" style="fill:none"/><path d="M109.5,5h19A1.54,1.54,0,0,1,130,6.5v19a1.54,1.54,0,0,1-1.5,1.5h-19a1.54,1.54,0,0,1-1.5-1.5V6.5A1.54,1.54,0,0,1,109.5,5Z" transform="translate(96 1)" style="fill:#e2e2e2"/><path d="M109.5,27.5h19a2,2,0,0,0,2-2V6.5a2,2,0,0,0-2-2h-19a2,2,0,0,0-2,2v19A2,2,0,0,0,109.5,27.5Z" transform="translate(96 1)" style="fill:none;stroke:#d3d3d3"/><rect x="202" y="5" width="26" height="24" style="fill:none"/><path d="M222.9,4a1.9,1.9,0,0,0-1.9,1.9v9.3a1.9,1.9,0,0,0,1.9,1.9h9.3a1.9,1.9,0,0,0,1.9-1.9V5.89A1.9,1.9,0,0,0,232.2,4h-9.3ZM223,5h9a1.08,1.08,0,0,1,1,1v9a1.08,1.08,0,0,1-1,1l-9.1-.1A0.9,0.9,0,0,1,222,15V6A1.08,1.08,0,0,1,223,5Z" transform="translate(96 1)" style="fill:#e6e6e6"/><path d="M223,5h9a0.94,0.94,0,0,1,1,1v9a0.94,0.94,0,0,1-1,1h-9a0.94,0.94,0,0,1-1-1V6A1,1,0,0,1,223,5Z" transform="translate(96 1)" style="fill:#fff"/><path d="M237.9,4a1.9,1.9,0,0,0-1.9,1.9v9.3a1.9,1.9,0,0,0,1.9,1.9h9.3a1.9,1.9,0,0,0,1.9-1.9V5.89A1.9,1.9,0,0,0,247.2,4h-9.3ZM238,5h9a1.08,1.08,0,0,1,1,1v9a1.08,1.08,0,0,1-1,1l-9.1-.1A0.9,0.9,0,0,1,237,15V6A1.08,1.08,0,0,1,238,5Z" transform="translate(96 1)" style="fill:#e6e6e6"/><path d="M238,5h9a0.94,0.94,0,0,1,1,1v9a0.94,0.94,0,0,1-1,1h-9a0.94,0.94,0,0,1-1-1V6A1,1,0,0,1,238,5Z" transform="translate(96 1)" style="fill:#fff"/><path d="M255,4h9a2,2,0,0,1,2,2v9a2,2,0,0,1-2,2h-9a2,2,0,0,1-2-2V6A2,2,0,0,1,255,4Z" transform="translate(96 1)" style="fill:#e2e2e2"/><path d="M256.77,9.41L259.38,12a0.68,0.68,0,0,1,0,1l-0.49.49a0.68,0.68,0,0,1-1,0l-2.62-2.62a0.68,0.68,0,0,1,0-1l0.49-.49A0.68,0.68,0,0,1,256.77,9.41Z" transform="translate(96 1)" style="fill:#fff"/><rect x="256.58" y="9.36" width="8" height="2" transform="translate(165 188.29) rotate(-45)" style="fill:#fff"/><rect x="256.47" y="8.36" width="1" height="3" transform="translate(164.29 185.59) rotate(-45)" style="fill:#eee;fill-opacity:0"/><path d="M221,25.5a6.5,6.5,0,1,0,6.5-6.5A6.49,6.49,0,0,0,221,25.5Zm1-.1a5.34,5.34,0,0,1,5.5-5.4,5.5,5.5,0,0,1,0,11A5.51,5.51,0,0,1,222,25.4Z" transform="translate(96 1)" style="fill:#e6e6e6"/><path d="M227.49,20h0A5.48,5.48,0,0,1,233,25.54h0a5.51,5.51,0,0,1-5.48,5.52h0A5.48,5.48,0,0,1,222,25.54h0A5.48,5.48,0,0,1,227.49,20Z" transform="translate(96 1)" style="fill:#fff"/><path d="M259.5,19h0A6.49,6.49,0,0,1,266,25.49h0A6.49,6.49,0,0,1,259.5,32h0A6.49,6.49,0,0,1,253,25.49h0A6.49,6.49,0,0,1,259.5,19Z" transform="translate(96 1)" style="fill:#e2e2e2"/><path d="M259.5,23h0a2.48,2.48,0,0,1,2.5,2.5h0a2.48,2.48,0,0,1-2.5,2.5h0a2.48,2.48,0,0,1-2.5-2.5h0A2.48,2.48,0,0,1,259.5,23Z" transform="translate(96 1)" style="fill:#fff"/><path d="M271,4h9a2,2,0,0,1,2,2v9a2,2,0,0,1-2,2h-9a2,2,0,0,1-2-2V6A2,2,0,0,1,271,4Z" transform="translate(96 1)" style="fill:#e2e2e2"/><path d="M278.76,6.8L274.52,11l-2.12-2.12L271,10.33l2.12,2.12,1.41,1.41,1.41-1.41,4.24-4.24Z" transform="translate(96 1)" style="fill:#fff"/><rect x="272.11" y="8.45" width="1" height="3" transform="translate(168.81 196.68) rotate(-45)" style="fill:#eee;fill-opacity:0"/><path d="M275.5,19h0A6.49,6.49,0,0,1,282,25.49h0A6.49,6.49,0,0,1,275.5,32h0A6.49,6.49,0,0,1,269,25.49h0A6.46,6.46,0,0,1,275.5,19Z" transform="translate(96 1)" style="fill:#e2e2e2"/><path d="M275.5,23h0a2.48,2.48,0,0,1,2.5,2.5h0a2.48,2.48,0,0,1-2.5,2.5h0a2.48,2.48,0,0,1-2.5-2.5h0A2.48,2.48,0,0,1,275.5,23Z" transform="translate(96 1)" style="fill:#fff"/><path d="M236,25.5a6.5,6.5,0,1,0,6.5-6.5A6.49,6.49,0,0,0,236,25.5Zm1-.1a5.34,5.34,0,0,1,5.5-5.4,5.5,5.5,0,0,1,0,11A5.51,5.51,0,0,1,237,25.4Z" transform="translate(96 1)" style="fill:#e6e6e6"/><path d="M242.49,20h0A5.48,5.48,0,0,1,248,25.54h0a5.51,5.51,0,0,1-5.48,5.52h0A5.48,5.48,0,0,1,237,25.54h0A5.45,5.45,0,0,1,242.49,20Z" transform="translate(96 1)" style="fill:#fff"/><path d="M292,3a2,2,0,0,0-2,2V15a2,2,0,0,0,2,2h10a2,2,0,0,0,2-2V5a2,2,0,0,0-2-2H292Zm0,1h10a0.94,0.94,0,0,1,1,1V15a0.94,0.94,0,0,1-1,1H292a0.94,0.94,0,0,1-1-1V5A1,1,0,0,1,292,4Z" transform="translate(96 1)" style="fill:#e6e6e6"/><rect x="385" y="3" width="16" height="16" style="fill:none"/><path d="M292,4h10a0.94,0.94,0,0,1,1,1V15a0.94,0.94,0,0,1-1,1H292a0.94,0.94,0,0,1-1-1V5A0.94,0.94,0,0,1,292,4Z" transform="translate(96 1)" style="fill:#fff"/><rect x="417" y="3" width="16" height="16" style="fill:none"/><path d="M324,3h10a2,2,0,0,1,2,2V15a2,2,0,0,1-2,2H324a2,2,0,0,1-2-2V5A2,2,0,0,1,324,3Z" transform="translate(96 1)" style="fill:#e2e2e2"/><path d="M326.42,9.06L329,11.68a0.68,0.68,0,0,1,0,1l-0.49.49a0.68,0.68,0,0,1-1,0l-2.62-2.62a0.68,0.68,0,0,1,0-1l0.49-.49A0.68,0.68,0,0,1,326.42,9.06Z" transform="translate(96 1)" style="fill:#fff"/><rect x="326.14" y="8.97" width="8" height="2" transform="translate(185.65 237.37) rotate(-45)" style="fill:#fff"/><rect x="326.11" y="8.47" width="1" height="3" transform="translate(184.61 234.87) rotate(-45)" style="fill:#eee;fill-opacity:0"/><path d="M290,26a7,7,0,1,0,7-7A7,7,0,0,0,290,26Zm1,0a6,6,0,1,1,6,6A6,6,0,0,1,291,26Z" transform="translate(96 1)" style="fill:#e6e6e6"/><rect x="385.01" y="18.97" width="16.01" height="16" style="fill:none"/><path d="M297,20h0a6,6,0,0,1,6,6h0a6,6,0,0,1-6,6h0a6,6,0,0,1-6-6h0A6,6,0,0,1,297,20Z" transform="translate(96 1)" style="fill:#fff"/><rect x="417.03" y="18.97" width="16.01" height="16" style="fill:none"/><path d="M329,19h0a7,7,0,0,1,7,7h0a7,7,0,0,1-7,7h0a7,7,0,0,1-7-7h0A7,7,0,0,1,329,19Z" transform="translate(96 1)" style="fill:#e2e2e2"/><path d="M329,24h0a2,2,0,0,1,2,2h0a2,2,0,0,1-2,2h0a2,2,0,0,1-2-2h0A2,2,0,0,1,329,24Z" transform="translate(96 1)" style="fill:#fff"/><path d="M308,3a2,2,0,0,0-2,2V15a2,2,0,0,0,2,2h10a2,2,0,0,0,2-2V5a2,2,0,0,0-2-2H308Zm0,1h10a0.94,0.94,0,0,1,1,1V15a0.94,0.94,0,0,1-1,1H308a0.94,0.94,0,0,1-1-1V5A1,1,0,0,1,308,4Z" transform="translate(96 1)" style="fill:#e6e6e6"/><rect x="401" y="3" width="16" height="16" style="fill:none"/><path d="M308,4h10a0.94,0.94,0,0,1,1,1V15a0.94,0.94,0,0,1-1,1H308a0.94,0.94,0,0,1-1-1V5A0.94,0.94,0,0,1,308,4Z" transform="translate(96 1)" style="fill:#fff"/><rect x="433" y="3" width="16" height="16" style="fill:none"/><path d="M340,3h10a2,2,0,0,1,2,2V15a2,2,0,0,1-2,2H340a2,2,0,0,1-2-2V5A2,2,0,0,1,340,3Z" transform="translate(96 1)" style="fill:#e2e2e2"/><path d="M348.27,6.44L344,10.69,341.9,8.57,340.49,10l2.12,2.12L344,13.52l1.41-1.41,4.24-4.24Z" transform="translate(96 1)" style="fill:#fff"/><rect x="342.11" y="8.45" width="1" height="3" transform="translate(189.31 246.17) rotate(-45)" style="fill:#eee;fill-opacity:0"/><path d="M306,26a7,7,0,1,0,7-7A7,7,0,0,0,306,26Zm1,0a6,6,0,1,1,6,6A6,6,0,0,1,307,26Z" transform="translate(96 1)" style="fill:#e6e6e6"/><rect x="401.02" y="18.97" width="16.01" height="16" style="fill:none"/><path d="M313,20h0a6,6,0,0,1,6,6h0a6,6,0,0,1-6,6h0a6,6,0,0,1-6-6h0A6,6,0,0,1,313,20Z" transform="translate(96 1)" style="fill:#fff"/><rect x="433.04" y="18.97" width="16.01" height="16" style="fill:none"/><path d="M345,19h0a7,7,0,0,1,7,7h0a7,7,0,0,1-7,7h0a7,7,0,0,1-7-7h0A7,7,0,0,1,345,19Z" transform="translate(96 1)" style="fill:#e2e2e2"/><path d="M345,24h0a2,2,0,0,1,2,2h0a2,2,0,0,1-2,2h0a2,2,0,0,1-2-2h0A2,2,0,0,1,345,24Z" transform="translate(96 1)" style="fill:#fff"/><rect x="99" y="67" width="26" height="24" style="fill:#f7f7f7"/><path d="M6.5,67h19A2.48,2.48,0,0,1,28,69.5v17A2.48,2.48,0,0,1,25.5,89H6.5A2.48,2.48,0,0,1,4,86.5v-17A2.48,2.48,0,0,1,6.5,67Z" transform="translate(96 1)" style="fill:#fff"/><path d="M6.5,66.5h19a3,3,0,0,1,3,3v17a3,3,0,0,1-3,3H6.5a3,3,0,0,1-3-3v-17A3,3,0,0,1,6.5,66.5Z" transform="translate(96 1)" style="fill:none;stroke:#e6e6e6"/><rect x="133" y="67" width="26" height="24" style="fill:#f7f7f7"/><path d="M40.5,67h19A2.48,2.48,0,0,1,62,69.5v17A2.48,2.48,0,0,1,59.5,89h-19A2.48,2.48,0,0,1,38,86.5v-17A2.48,2.48,0,0,1,40.5,67Z" transform="translate(96 1)" style="fill:#fff"/><path d="M40.5,66.5h19a3,3,0,0,1,3,3v17a3,3,0,0,1-3,3h-19a3,3,0,0,1-3-3v-17A3,3,0,0,1,40.5,66.5Z" transform="translate(96 1)" style="fill:none;stroke:#e2e2e2"/><rect x="167" y="67" width="26" height="24" style="fill:#f7f7f7"/><path d="M74.5,67h19A2.48,2.48,0,0,1,96,69.5v17A2.48,2.48,0,0,1,93.5,89h-19A2.48,2.48,0,0,1,72,86.5v-17A2.48,2.48,0,0,1,74.5,67Z" transform="translate(96 1)" style="fill:#fcfcfc"/><path d="M74.5,66.5h19a3,3,0,0,1,3,3v17a3,3,0,0,1-3,3h-19a3,3,0,0,1-3-3v-17A3,3,0,0,1,74.5,66.5Z" transform="translate(96 1)" style="fill:none;stroke:#efefef"/><rect x="99" y="99" width="26" height="24" style="fill:#fff"/><path d="M6.5,98.5h19a3,3,0,0,1,3,3v17a3,3,0,0,1-3,3H6.5a3,3,0,0,1-3-3v-17A3,3,0,0,1,6.5,98.5Z" transform="translate(96 1)" style="fill:none;stroke:#e6e6e6"/><path d="M6.5,99h19a2.48,2.48,0,0,1,2.5,2.5v17a2.48,2.48,0,0,1-2.5,2.5H6.5A2.48,2.48,0,0,1,4,118.5v-17A2.48,2.48,0,0,1,6.5,99Z" transform="translate(96 1)" style="fill:#fff"/><rect x="133" y="99" width="26" height="24" style="fill:#fff"/><path d="M40.5,98.5h19a3,3,0,0,1,3,3v17a3,3,0,0,1-3,3h-19a3,3,0,0,1-3-3v-17A3,3,0,0,1,40.5,98.5Z" transform="translate(96 1)" style="fill:none;stroke:#e2e2e2"/><path d="M40.5,99h19a2.48,2.48,0,0,1,2.5,2.5v17a2.48,2.48,0,0,1-2.5,2.5h-19a2.48,2.48,0,0,1-2.5-2.5v-17A2.48,2.48,0,0,1,40.5,99Z" transform="translate(96 1)" style="fill:#fff"/><rect x="167" y="99" width="26" height="24" style="fill:#fff"/><path d="M74.5,99h19a2.48,2.48,0,0,1,2.5,2.5v17a2.48,2.48,0,0,1-2.5,2.5h-19a2.48,2.48,0,0,1-2.5-2.5v-17A2.48,2.48,0,0,1,74.5,99Z" transform="translate(96 1)" style="fill:#fcfcfc"/><path d="M74.5,98.5h19a3,3,0,0,1,3,3v17a3,3,0,0,1-3,3h-19a3,3,0,0,1-3-3v-17A3,3,0,0,1,74.5,98.5Z" transform="translate(96 1)" style="fill:none;stroke:#e6e6e6;opacity:0.550000011920929;isolation:isolate"/><g style="clip-path:url(#a)"><rect x="99" y="174" width="26" height="24" style="fill:#f7f7f7"/></g><g style="clip-path:url(#a)"><path d="M5,174H26a0.94,0.94,0,0,1,1,1v20a0.94,0.94,0,0,1-1,1H5a0.94,0.94,0,0,1-1-1V175A0.94,0.94,0,0,1,5,174Z" transform="translate(96 1)" style="fill:#fff"/></g><g style="clip-path:url(#a)"><path d="M6.5,173.5h18a3,3,0,0,1,3,3v17a3,3,0,0,1-3,3H6.5a3,3,0,0,1-3-3v-17A3,3,0,0,1,6.5,173.5Z" transform="translate(96 1)" style="fill:none;stroke:#e6e6e6"/></g><g style="clip-path:url(#d)"><rect x="124" y="174" width="26" height="24" style="fill:#f7f7f7"/></g><g style="clip-path:url(#d)"><path d="M30,174H51a0.94,0.94,0,0,1,1,1v20a0.94,0.94,0,0,1-1,1H30a0.94,0.94,0,0,1-1-1V175A0.94,0.94,0,0,1,30,174Z" transform="translate(96 1)" style="fill:#fff"/></g><g style="clip-path:url(#d)"><path d="M31.5,173.5h18a3,3,0,0,1,3,3v17a3,3,0,0,1-3,3h-18a3,3,0,0,1-3-3v-17A3,3,0,0,1,31.5,173.5Z" transform="translate(96 1)" style="fill:none;stroke:#e2e2e2"/></g><g style="clip-path:url(#g)"><rect x="149" y="174" width="26" height="24" style="fill:#f7f7f7"/><path d="M55,174H76a0.94,0.94,0,0,1,1,1v20a0.94,0.94,0,0,1-1,1H55a0.94,0.94,0,0,1-1-1V175A0.94,0.94,0,0,1,55,174Z" transform="translate(96 1)" style="fill:#fcfcfc"/><path d="M56.5,173.5h18a3,3,0,0,1,3,3v17a3,3,0,0,1-3,3h-18a3,3,0,0,1-3-3v-17A3,3,0,0,1,56.5,173.5Z" transform="translate(96 1)" style="fill:none;stroke:#efefef"/></g><g style="clip-path:url(#h)"><rect x="99" y="204" width="26" height="24" style="fill:#fff"/></g><g style="clip-path:url(#h)"><path d="M5,204H26a0.94,0.94,0,0,1,1,1v20a0.94,0.94,0,0,1-1,1H5a0.94,0.94,0,0,1-1-1V205A0.94,0.94,0,0,1,5,204Z" transform="translate(96 1)" style="fill:#fff"/></g><g style="clip-path:url(#h)"><path d="M6.5,203.5h18a3,3,0,0,1,3,3v17a3,3,0,0,1-3,3H6.5a3,3,0,0,1-3-3v-17A3,3,0,0,1,6.5,203.5Z" transform="translate(96 1)" style="fill:none;stroke:#e6e6e6"/></g><g style="clip-path:url(#k)"><rect x="124" y="204" width="26" height="24" style="fill:#fff"/></g><g style="clip-path:url(#k)"><path d="M30,204H51a0.94,0.94,0,0,1,1,1v20a0.94,0.94,0,0,1-1,1H30a0.94,0.94,0,0,1-1-1V205A0.94,0.94,0,0,1,30,204Z" transform="translate(96 1)" style="fill:#fff"/></g><g style="clip-path:url(#k)"><path d="M31.5,203.5h18a3,3,0,0,1,3,3v17a3,3,0,0,1-3,3h-18a3,3,0,0,1-3-3v-17A3,3,0,0,1,31.5,203.5Z" transform="translate(96 1)" style="fill:none;stroke:#e2e2e2"/></g><g style="clip-path:url(#n)"><rect x="149" y="204" width="26" height="24" style="fill:#fff"/><path d="M55,204H76a0.94,0.94,0,0,1,1,1v20a0.94,0.94,0,0,1-1,1H55a0.94,0.94,0,0,1-1-1V205A0.94,0.94,0,0,1,55,204Z" transform="translate(96 1)" style="fill:#fcfcfc"/><path d="M56.5,203.5h18a3,3,0,0,1,3,3v17a3,3,0,0,1-3,3h-18a3,3,0,0,1-3-3v-17A3,3,0,0,1,56.5,203.5Z" transform="translate(96 1)" style="fill:none;stroke:#e6e6e6;opacity:0.550000011920929;isolation:isolate"/></g><g style="clip-path:url(#o)"><path d="M2,235H22a0.94,0.94,0,0,1,1,1v20a0.94,0.94,0,0,1-1,1H2a0.94,0.94,0,0,1-1-1V236A0.94,0.94,0,0,1,2,235Z" transform="translate(96 1)" style="fill:#fdfdfd"/><path d="M2.5,234.5h19a2,2,0,0,1,2,2v19a2,2,0,0,1-2,2H2.5a2,2,0,0,1-2-2v-19A2,2,0,0,1,2.5,234.5Z" transform="translate(96 1)" style="fill:none;stroke:#e6e6e6"/><rect x="95" y="235" width="26" height="24" style="fill:none"/></g><rect x="100" y="236" width="1" height="22" style="fill:#e6e6e6;opacity:0.30000001192092896;isolation:isolate"/><g style="clip-path:url(#p)"><path d="M26,235H46a0.94,0.94,0,0,1,1,1v20a0.94,0.94,0,0,1-1,1H26a0.94,0.94,0,0,1-1-1V236A0.94,0.94,0,0,1,26,235Z" transform="translate(96 1)" style="fill:#fcfcfc"/><path d="M26.5,234.5h19a2,2,0,0,1,2,2v19a2,2,0,0,1-2,2h-19a2,2,0,0,1-2-2v-19A2,2,0,0,1,26.5,234.5Z" transform="translate(96 1)" style="fill:none;stroke:#efefef"/><rect x="119" y="235" width="26" height="24" style="fill:none"/></g><rect x="124" y="236" width="1" height="22" style="fill:#efefef;opacity:0.30000001192092896;isolation:isolate"/><g style="clip-path:url(#q)"><path d="M50,235H70a0.94,0.94,0,0,1,1,1v20a0.94,0.94,0,0,1-1,1H50a0.94,0.94,0,0,1-1-1V236A0.94,0.94,0,0,1,50,235Z" transform="translate(96 1)" style="fill:#e2e2e2"/><path d="M50.5,257.5h19a2,2,0,0,0,2-2v-19a2,2,0,0,0-2-2h-19a2,2,0,0,0-2,2v19A2,2,0,0,0,50.5,257.5Z" transform="translate(96 1)" style="fill:none;stroke:#d3d3d3"/><rect x="143" y="235" width="26" height="24" style="fill:none"/></g><rect x="148" y="236" width="1" height="22" style="fill:#d3d3d3"/><g style="clip-path:url(#r)"><rect x="226" y="174" width="26" height="24" style="fill:#f7f7f7"/></g><g style="clip-path:url(#r)"><path d="M133,174h21a0.94,0.94,0,0,1,1,1v20a0.94,0.94,0,0,1-1,1H133a0.94,0.94,0,0,1-1-1V175A0.94,0.94,0,0,1,133,174Z" transform="translate(96 1)" style="fill:#fff"/></g><g style="clip-path:url(#r)"><path d="M152.5,173.5h-18a3,3,0,0,0-3,3v17a3,3,0,0,0,3,3h18a3,3,0,0,0,3-3v-17A3,3,0,0,0,152.5,173.5Z" transform="translate(96 1)" style="fill:none;stroke:#e6e6e6"/></g><g style="clip-path:url(#u)"><rect x="201" y="174" width="26" height="24" style="fill:#f7f7f7"/></g><g style="clip-path:url(#u)"><path d="M108,174h21a0.94,0.94,0,0,1,1,1v20a0.94,0.94,0,0,1-1,1H108a0.94,0.94,0,0,1-1-1V175A0.94,0.94,0,0,1,108,174Z" transform="translate(96 1)" style="fill:#fff"/></g><g style="clip-path:url(#u)"><path d="M127.5,173.5h-18a3,3,0,0,0-3,3v17a3,3,0,0,0,3,3h18a3,3,0,0,0,3-3v-17A3,3,0,0,0,127.5,173.5Z" transform="translate(96 1)" style="fill:none;stroke:#e2e2e2"/></g><g style="clip-path:url(#x)"><rect x="176" y="174" width="26" height="24" style="fill:#f7f7f7"/><path d="M104,174H83a0.94,0.94,0,0,0-1,1v20a0.94,0.94,0,0,0,1,1h21a0.94,0.94,0,0,0,1-1V175A0.94,0.94,0,0,0,104,174Z" transform="translate(96 1)" style="fill:#fcfcfc"/><path d="M102.5,173.5h-18a3,3,0,0,0-3,3v17a3,3,0,0,0,3,3h18a3,3,0,0,0,3-3v-17A3,3,0,0,0,102.5,173.5Z" transform="translate(96 1)" style="fill:none;stroke:#efefef"/></g><g style="clip-path:url(#y)"><rect x="226" y="204" width="26" height="24" style="fill:#fff"/></g><g style="clip-path:url(#y)"><path d="M133,204h21a0.94,0.94,0,0,1,1,1v20a0.94,0.94,0,0,1-1,1H133a0.94,0.94,0,0,1-1-1V205A0.94,0.94,0,0,1,133,204Z" transform="translate(96 1)" style="fill:#fff"/></g><g style="clip-path:url(#y)"><path d="M152.5,203.5h-18a3,3,0,0,0-3,3v17a3,3,0,0,0,3,3h18a3,3,0,0,0,3-3v-17A3,3,0,0,0,152.5,203.5Z" transform="translate(96 1)" style="fill:none;stroke:#e6e6e6"/></g><g style="clip-path:url(#ab)"><rect x="201" y="204" width="26" height="24" style="fill:#fff"/></g><g style="clip-path:url(#ab)"><path d="M108,204h21a0.94,0.94,0,0,1,1,1v20a0.94,0.94,0,0,1-1,1H108a0.94,0.94,0,0,1-1-1V205A0.94,0.94,0,0,1,108,204Z" transform="translate(96 1)" style="fill:#fff"/></g><g style="clip-path:url(#ab)"><path d="M127.5,203.5h-18a3,3,0,0,0-3,3v17a3,3,0,0,0,3,3h18a3,3,0,0,0,3-3v-17A3,3,0,0,0,127.5,203.5Z" transform="translate(96 1)" style="fill:none;stroke:#e2e2e2"/></g><g style="clip-path:url(#ae)"><rect x="176" y="204" width="26" height="24" style="fill:#fff"/><path d="M104,204H83a0.94,0.94,0,0,0-1,1v20a0.94,0.94,0,0,0,1,1h21a0.94,0.94,0,0,0,1-1V205A0.94,0.94,0,0,0,104,204Z" transform="translate(96 1)" style="fill:#fcfcfc"/><path d="M102.5,203.5h-18a3,3,0,0,0-3,3v17a3,3,0,0,0,3,3h18a3,3,0,0,0,3-3v-17A3,3,0,0,0,102.5,203.5Z" transform="translate(96 1)" style="fill:none;stroke:#e6e6e6;opacity:0.550000011920929;isolation:isolate"/></g><g style="clip-path:url(#af)"><path d="M155,235H135a0.94,0.94,0,0,0-1,1v20a0.94,0.94,0,0,0,1,1h20a0.94,0.94,0,0,0,1-1V236A0.94,0.94,0,0,0,155,235Z" transform="translate(96 1)" style="fill:#fdfdfd"/><path d="M154.5,234.5h-19a2,2,0,0,0-2,2v19a2,2,0,0,0,2,2h19a2,2,0,0,0,2-2v-19A2,2,0,0,0,154.5,234.5Z" transform="translate(96 1)" style="fill:none;stroke:#e6e6e6"/><rect x="228" y="235" width="26" height="24" style="fill:none"/></g><rect x="248" y="236" width="1" height="22" style="opacity:0.10999999940395355;isolation:isolate"/><g style="clip-path:url(#ag)"><path d="M131,235H111a0.94,0.94,0,0,0-1,1v20a0.94,0.94,0,0,0,1,1h20a0.94,0.94,0,0,0,1-1V236A0.94,0.94,0,0,0,131,235Z" transform="translate(96 1)" style="fill:#fcfcfc"/><path d="M130.5,234.5h-19a2,2,0,0,0-2,2v19a2,2,0,0,0,2,2h19a2,2,0,0,0,2-2v-19A2,2,0,0,0,130.5,234.5Z" transform="translate(96 1)" style="fill:none;stroke:#efefef"/><rect x="204" y="235" width="26" height="24" style="fill:none"/></g><rect x="224" y="236" width="1" height="22" style="fill:#efefef;opacity:0.30000001192092896;isolation:isolate"/><g style="clip-path:url(#ah)"><path d="M106.5,235h-19a1.54,1.54,0,0,0-1.5,1.5v19a1.54,1.54,0,0,0,1.5,1.5h19a1.54,1.54,0,0,0,1.5-1.5v-19A1.54,1.54,0,0,0,106.5,235Z" transform="translate(96 1)" style="fill:#e2e2e2"/><path d="M106.5,257.5h-19a2,2,0,0,1-2-2v-19a2,2,0,0,1,2-2h19a2,2,0,0,1,2,2v19A2,2,0,0,1,106.5,257.5Z" transform="translate(96 1)" style="fill:none;stroke:#d3d3d3"/><rect x="180" y="235" width="26" height="24" style="fill:none"/></g><rect x="200" y="236" width="1" height="22" style="fill:#d3d3d3"/><g style="clip-path:url(#ai)"><rect x="83" y="282" width="26" height="25" style="fill:none"/></g><g style="clip-path:url(#ai)"><path d="M-10,283H10a0.94,0.94,0,0,1,1,1v20a0.94,0.94,0,0,1-1,1H-10a0.94,0.94,0,0,1-1-1V284A0.94,0.94,0,0,1-10,283Z" transform="translate(96 1)" style="fill:#fff"/></g><g style="clip-path:url(#ai)"><path d="M-9.5,282.5h19a2,2,0,0,1,2,2v19a2,2,0,0,1-2,2h-19a2,2,0,0,1-2-2v-19A2,2,0,0,1-9.5,282.5Z" transform="translate(96 1)" style="fill:none;stroke:#e6e6e6"/></g><g style="clip-path:url(#al)"><rect x="83" y="282" width="26" height="25" style="fill:none"/></g><g style="clip-path:url(#al)"><path d="M-10,282H10a0.94,0.94,0,0,1,1,1v20a0.94,0.94,0,0,1-1,1H-10a0.94,0.94,0,0,1-1-1V283A0.94,0.94,0,0,1-10,282Z" transform="translate(96 1)" style="fill:#fff"/></g><g style="clip-path:url(#al)"><path d="M-9.5,281.5h19a2,2,0,0,1,2,2v19a2,2,0,0,1-2,2h-19a2,2,0,0,1-2-2v-19A2,2,0,0,1-9.5,281.5Z" transform="translate(96 1)" style="fill:none;stroke:#e6e6e6"/></g><g style="clip-path:url(#ao)"><rect x="99" y="282" width="26" height="25" style="fill:none"/></g><g style="clip-path:url(#ao)"><path d="M6,283H26a0.94,0.94,0,0,1,1,1v20a0.94,0.94,0,0,1-1,1H6a0.94,0.94,0,0,1-1-1V284A0.94,0.94,0,0,1,6,283Z" transform="translate(96 1)" style="fill:#fcfcfc"/></g><g style="clip-path:url(#ao)"><path d="M6.5,282.5h19a2,2,0,0,1,2,2v19a2,2,0,0,1-2,2H6.5a2,2,0,0,1-2-2v-19A2,2,0,0,1,6.5,282.5Z" transform="translate(96 1)" style="fill:none;stroke:#efefef"/></g><g style="clip-path:url(#ar)"><rect x="99" y="282" width="26" height="25" style="fill:none"/></g><g style="clip-path:url(#ar)"><path d="M6,282H26a0.94,0.94,0,0,1,1,1v20a0.94,0.94,0,0,1-1,1H6a0.94,0.94,0,0,1-1-1V283A0.94,0.94,0,0,1,6,282Z" transform="translate(96 1)" style="fill:#fcfcfc"/></g><g style="clip-path:url(#ar)"><path d="M6.5,281.5h19a2,2,0,0,1,2,2v19a2,2,0,0,1-2,2H6.5a2,2,0,0,1-2-2v-19A2,2,0,0,1,6.5,281.5Z" transform="translate(96 1)" style="fill:none;stroke:#efefef"/></g><g style="clip-path:url(#au)"><rect x="148" y="282" width="26" height="25" style="fill:none"/></g><g style="clip-path:url(#au)"><path d="M75,283H55a0.94,0.94,0,0,0-1,1v20a0.94,0.94,0,0,0,1,1H75a0.94,0.94,0,0,0,1-1V284A0.94,0.94,0,0,0,75,283Z" transform="translate(96 1)" style="fill:#fff"/></g><g style="clip-path:url(#au)"><path d="M74.5,282.5h-19a2,2,0,0,0-2,2v19a2,2,0,0,0,2,2h19a2,2,0,0,0,2-2v-19A2,2,0,0,0,74.5,282.5Z" transform="translate(96 1)" style="fill:none;stroke:#e6e6e6"/></g><g style="clip-path:url(#ax)"><rect x="148" y="282" width="26" height="25" style="fill:none"/></g><g style="clip-path:url(#ax)"><path d="M75,282H55a0.94,0.94,0,0,0-1,1v20a0.94,0.94,0,0,0,1,1H75a0.94,0.94,0,0,0,1-1V283A0.94,0.94,0,0,0,75,282Z" transform="translate(96 1)" style="fill:#fff"/></g><g style="clip-path:url(#ax)"><path d="M74.5,281.5h-19a2,2,0,0,0-2,2v19a2,2,0,0,0,2,2h19a2,2,0,0,0,2-2v-19A2,2,0,0,0,74.5,281.5Z" transform="translate(96 1)" style="fill:none;stroke:#e6e6e6"/></g><g style="clip-path:url(#ba)"><rect x="132" y="282" width="26" height="25" style="fill:none"/></g><g style="clip-path:url(#ba)"><path d="M58,283H40a2,2,0,0,0-2,2v18a2,2,0,0,0,2,2H58a2,2,0,0,0,2-2V285A2,2,0,0,0,58,283Z" transform="translate(96 1)" style="fill:#fcfcfc"/></g><g style="clip-path:url(#ba)"><path d="M58.5,282.5h-19a2,2,0,0,0-2,2v19a2,2,0,0,0,2,2h19a2,2,0,0,0,2-2v-19A2,2,0,0,0,58.5,282.5Z" transform="translate(96 1)" style="fill:none;stroke:#efefef"/></g><g style="clip-path:url(#bd)"><rect x="132" y="282" width="26" height="25" style="fill:none"/></g><g style="clip-path:url(#bd)"><path d="M59,282H39a0.94,0.94,0,0,0-1,1v20a0.94,0.94,0,0,0,1,1H59a0.94,0.94,0,0,0,1-1V283A0.94,0.94,0,0,0,59,282Z" transform="translate(96 1)" style="fill:#fcfcfc"/></g><g style="clip-path:url(#bd)"><path d="M58.5,281.5h-19a2,2,0,0,0-2,2v19a2,2,0,0,0,2,2h19a2,2,0,0,0,2-2v-19A2,2,0,0,0,58.5,281.5Z" transform="translate(96 1)" style="fill:none;stroke:#efefef"/></g><path d="M3.6,327a0.78,0.78,0,0,0-.6.9,0.52,0.52,0,0,0,.2.4l3.7,4,0.5,0.6,0.5-.6,3.7-4a0.91,0.91,0,0,0,0-1.2,0.78,0.78,0,0,0-1.1,0l-3.2,3.5-3.2-3.5C4.1,327,3.9,327,3.6,327Z" transform="translate(96 1)" style="fill:#6c6c6c"/><path d="M12,327.4h0a0.43,0.43,0,0,0-.4-0.4h0a0.43,0.43,0,0,0-.4.4h0a0.43,0.43,0,0,0,.4.4h0A0.43,0.43,0,0,0,12,327.4Z" transform="translate(96 1)" style="fill:#6c6c6c"/><path d="M3.8,327.4h0a0.43,0.43,0,0,0-.4-0.4h0a0.43,0.43,0,0,0-.4.4H3a0.43,0.43,0,0,0,.4.4h0A0.43,0.43,0,0,0,3.8,327.4Z" transform="translate(96 1)" style="fill:#6c6c6c"/><path d="M14.8,327H14.4a0.43,0.43,0,0,0-.4.4v0.1a1,1,0,0,0,.2.9l3.7,4,0.5,0.6,0.5-.6,3.7-4a0.78,0.78,0,0,0,.2-0.8v-0.1a0.43,0.43,0,0,0-.4-0.4H22.3a0.78,0.78,0,0,0-.8.2l-3.2,3.5-3.2-3.5C15.2,327.1,15,327,14.8,327Z" transform="translate(96 1)" style="fill:#6c6c6c;opacity:0.550000011920929;isolation:isolate"/><path d="M25.8,327H25.4a0.43,0.43,0,0,0-.4.4v0.1a1,1,0,0,0,.2.9l3.7,4,0.5,0.6,0.5-.6,3.7-4a0.78,0.78,0,0,0,.2-0.8v-0.1a0.43,0.43,0,0,0-.4-0.4H33.3a0.78,0.78,0,0,0-.8.2l-3.2,3.5-3.2-3.5C26.2,327.1,26,327,25.8,327Z" transform="translate(96 1)" style="fill:#9d9d9d"/><path d="M10,335.6a0.78,0.78,0,0,0-.9-0.6,0.52,0.52,0,0,0-.4.2l-4,3.7-0.6.5,0.6,0.5,4,3.7a0.91,0.91,0,0,0,1.2,0,0.78,0.78,0,0,0,0-1.1l-3.5-3.2,3.5-3.2C10,336.1,10,335.9,10,335.6Z" transform="translate(96 1)" style="fill:#6c6c6c"/><path d="M9.6,344h0a0.43,0.43,0,0,0,.4-0.4h0a0.43,0.43,0,0,0-.4-0.4h0a0.43,0.43,0,0,0-.4.4h0A0.43,0.43,0,0,0,9.6,344Z" transform="translate(96 1)" style="fill:#6c6c6c"/><path d="M9.6,335.8h0a0.43,0.43,0,0,0,.4-0.4h0a0.43,0.43,0,0,0-.4-0.4h0a0.43,0.43,0,0,0-.4.4h0A0.43,0.43,0,0,0,9.6,335.8Z" transform="translate(96 1)" style="fill:#6c6c6c"/><path d="M20.2,335a1.42,1.42,0,0,0-.6.2l-4,3.7-0.6.5,0.6,0.5,4,3.7a0.78,0.78,0,0,0,.8.2h0.1a0.43,0.43,0,0,0,.4-0.4v-0.1a0.78,0.78,0,0,0-.2-0.8l-3.5-3.2,3.5-3.2a0.62,0.62,0,0,0,.2-0.7v-0.2a0.43,0.43,0,0,0-.4-0.4H20.4A0.16,0.16,0,0,1,20.2,335Z" transform="translate(96 1)" style="fill:#6c6c6c"/><path d="M31.2,335a1.42,1.42,0,0,0-.6.2l-4,3.7-0.6.5,0.6,0.5,4,3.7a0.78,0.78,0,0,0,.8.2h0.1a0.43,0.43,0,0,0,.4-0.4v-0.1a0.78,0.78,0,0,0-.2-0.8l-3.5-3.2,3.5-3.2a0.62,0.62,0,0,0,.2-0.7v-0.2a0.43,0.43,0,0,0-.4-0.4H31.4A0.16,0.16,0,0,1,31.2,335Z" transform="translate(96 1)" style="fill:#9d9d9d"/><path d="M26.8,346H26.4a0.43,0.43,0,0,0-.4.4v0.2a0.62,0.62,0,0,0,.2.7l3.5,3.2-3.5,3.2a0.78,0.78,0,0,0-.2.8v0.1a0.43,0.43,0,0,0,.4.4h0.1a0.78,0.78,0,0,0,.8-0.2l4-3.7,0.6-.5-0.6-.5-4-3.7A0.45,0.45,0,0,0,26.8,346Z" transform="translate(96 1)" style="fill:#9d9d9d"/><path d="M15.8,346H15.4a0.43,0.43,0,0,0-.4.4v0.2a0.62,0.62,0,0,0,.2.7l3.5,3.2-3.5,3.2a0.78,0.78,0,0,0-.2.8v0.1a0.43,0.43,0,0,0,.4.4h0.1a0.78,0.78,0,0,0,.8-0.2l4-3.7,0.6-.5-0.6-.5-4-3.7A0.45,0.45,0,0,0,15.8,346Z" transform="translate(96 1)" style="fill:#6c6c6c"/><path d="M4,346.6a0.78,0.78,0,0,1,.9-0.6,0.52,0.52,0,0,1,.4.2l4,3.7,0.6,0.5-0.6.5-4,3.7a0.91,0.91,0,0,1-1.2,0,0.78,0.78,0,0,1,0-1.1l3.5-3.2-3.5-3.2C4,347.1,4,346.9,4,346.6Z" transform="translate(96 1)" style="fill:#6c6c6c"/><path d="M4.4,355h0a0.43,0.43,0,0,1-.4-0.4H4a0.43,0.43,0,0,1,.4-0.4h0a0.43,0.43,0,0,1,.4.4h0A0.43,0.43,0,0,1,4.4,355Z" transform="translate(96 1)" style="fill:#6c6c6c"/><path d="M4.4,346.8h0a0.43,0.43,0,0,1-.4-0.4H4a0.43,0.43,0,0,1,.4-0.4h0a0.43,0.43,0,0,1,.4.4h0A0.43,0.43,0,0,1,4.4,346.8Z" transform="translate(96 1)" style="fill:#6c6c6c"/><path d="M3.6,363a0.78,0.78,0,0,1-.6-0.9,0.52,0.52,0,0,1,.2-0.4l3.7-4,0.5-.6,0.5,0.6,3.7,4a0.91,0.91,0,0,1,0,1.2,0.78,0.78,0,0,1-1.1,0l-3.2-3.5-3.2,3.5C4.1,363,3.9,363,3.6,363Z" transform="translate(96 1)" style="fill:#6c6c6c"/><path d="M12,362.6h0a0.43,0.43,0,0,1-.4.4h0a0.43,0.43,0,0,1-.4-0.4h0a0.43,0.43,0,0,1,.4-0.4h0A0.43,0.43,0,0,1,12,362.6Z" transform="translate(96 1)" style="fill:#6c6c6c"/><path d="M3.8,362.6h0a0.43,0.43,0,0,1-.4.4h0a0.43,0.43,0,0,1-.4-0.4H3a0.43,0.43,0,0,1,.4-0.4h0A0.43,0.43,0,0,1,3.8,362.6Z" transform="translate(96 1)" style="fill:#6c6c6c"/><path d="M18.5,357l-0.5.6-3.7,4a1,1,0,0,0-.2.9v0.1a0.43,0.43,0,0,0,.4.4h0.2a0.62,0.62,0,0,0,.7-0.2l3.2-3.5,3.2,3.5a0.78,0.78,0,0,0,.8.2h0.1a0.43,0.43,0,0,0,.4-0.4v-0.1a0.78,0.78,0,0,0-.2-0.8l-3.7-4Z" transform="translate(96 1)" style="fill:#6c6c6c;opacity:0.550000011920929;isolation:isolate"/><path d="M29.5,357l-0.5.6-3.7,4a1,1,0,0,0-.2.9v0.1a0.43,0.43,0,0,0,.4.4h0.2a0.62,0.62,0,0,0,.7-0.2l3.2-3.5,3.2,3.5a0.78,0.78,0,0,0,.8.2h0.1a0.43,0.43,0,0,0,.4-0.4v-0.1a0.78,0.78,0,0,0-.2-0.8l-3.7-4Z" transform="translate(96 1)" style="fill:#9d9d9d"/><rect x="136" y="328" width="9" height="6" style="fill:none"/><path d="M41.49,328a0.7,0.7,0,0,0-.46.81,0.62,0.62,0,0,0,.17.4l2.9,3.36L44.51,333l0.41-.47,2.9-3.36a0.72,0.72,0,0,0,0-.94,0.51,0.51,0,0,0-.81,0l-2.5,2.89L42,328.26A0.6,0.6,0,0,0,41.49,328Z" transform="translate(96 1)" style="fill:#6c6c6c"/><path d="M48,328.32h0A0.3,0.3,0,0,0,47.7,328h0a0.3,0.3,0,0,0-.29.34h0a0.3,0.3,0,0,0,.29.34h0A0.3,0.3,0,0,0,48,328.32Z" transform="translate(96 1)" style="fill:#6c6c6c"/><path d="M41.61,328.32h0a0.3,0.3,0,0,0-.29-0.34h0a0.3,0.3,0,0,0-.29.34h0a0.3,0.3,0,0,0,.29.34h0A0.3,0.3,0,0,0,41.61,328.32Z" transform="translate(96 1)" style="fill:#6c6c6c"/><rect x="146" y="328" width="9" height="6" style="fill:none"/><path d="M51.59,328H51.3a0.3,0.3,0,0,0-.29.34v0.07a0.69,0.69,0,0,0,.12.74L54,332.5,54.44,333l0.41-.47,2.9-3.36a0.69,0.69,0,0,0,.12-0.74l0.06-.07a0.3,0.3,0,0,0-.29-0.34H57.51a0.57,0.57,0,0,0-.58.13L54.44,331l-2.5-2.89A0.37,0.37,0,0,0,51.59,328Z" transform="translate(96 1)" style="fill:#6c6c6c;opacity:0.550000011920929;isolation:isolate"/><rect x="156" y="328" width="9" height="6" style="fill:none"/><path d="M61.58,328H61.29a0.3,0.3,0,0,0-.29.34v0.07a0.69,0.69,0,0,0,.12.74L64,332.5,64.42,333l0.41-.47,2.9-3.36a0.69,0.69,0,0,0,.12-0.74l0.06-.07a0.3,0.3,0,0,0-.29-0.34H67.5a0.57,0.57,0,0,0-.58.13L64.42,331l-2.5-2.89A0.37,0.37,0,0,0,61.58,328Z" transform="translate(96 1)" style="fill:#9d9d9d"/><rect x="136" y="336" width="9" height="6" style="fill:none"/><path d="M41.49,340a0.7,0.7,0,0,1-.46-0.81,0.62,0.62,0,0,1,.17-0.4l2.9-3.36,0.41-.47,0.41,0.47,2.9,3.36a0.72,0.72,0,0,1,0,.94,0.51,0.51,0,0,1-.81,0l-2.5-2.89L42,339.7A0.41,0.41,0,0,1,41.49,340Z" transform="translate(96 1)" style="fill:#6c6c6c"/><path d="M48,339.63h0a0.3,0.3,0,0,1-.29.34h0a0.3,0.3,0,0,1-.29-0.34h0a0.3,0.3,0,0,1,.29-0.34h0A0.34,0.34,0,0,1,48,339.63Z" transform="translate(96 1)" style="fill:#6c6c6c"/><path d="M41.61,339.63h0a0.3,0.3,0,0,1-.29.34h0a0.3,0.3,0,0,1-.29-0.34h0a0.3,0.3,0,0,1,.29-0.34h0A0.34,0.34,0,0,1,41.61,339.63Z" transform="translate(96 1)" style="fill:#6c6c6c"/><rect x="146" y="336" width="9" height="6" style="fill:none"/><path d="M54.5,335l-0.41.47-2.9,3.36a0.69,0.69,0,0,0-.12.74v0.07a0.3,0.3,0,0,0,.29.34h0.17a0.43,0.43,0,0,0,.52-0.2l2.5-2.89,2.5,2.89a0.42,0.42,0,0,0,.58.13h0.12a0.3,0.3,0,0,0,.29-0.34c0-.07,0-0.07-0.06-0.07a0.82,0.82,0,0,0-.12-0.74L55,335.39Z" transform="translate(96 1)" style="fill:#6c6c6c;opacity:0.550000011920929;isolation:isolate"/><rect x="156" y="336" width="9" height="6" style="fill:none"/><path d="M64.48,335l-0.41.47-2.9,3.36a0.69,0.69,0,0,0-.12.74v0.07a0.3,0.3,0,0,0,.29.34h0.17a0.43,0.43,0,0,0,.52-0.2l2.5-2.89,2.5,2.89a0.42,0.42,0,0,0,.58.13h0.12a0.3,0.3,0,0,0,.29-0.34c0-.07,0-0.07-0.06-0.07a0.82,0.82,0,0,0-.12-0.74l-2.9-3.36Z" transform="translate(96 1)" style="fill:#9d9d9d"/><path d="M43,347.5a0.62,0.62,0,0,1,.8-0.5,0.76,0.76,0,0,1,.4.2l3.4,3.3,0.5,0.5-0.5.5-3.4,3.3a0.71,0.71,0,0,1-1-1l2.9-2.8-2.9-2.8A0.84,0.84,0,0,1,43,347.5Z" transform="translate(96 1)" style="fill:#6c6c6c"/><path d="M43.4,355h0a0.27,0.27,0,0,1-.3-0.3h0a0.32,0.32,0,0,1,.3-0.3h0a0.27,0.27,0,0,1,.3.3h0A0.45,0.45,0,0,1,43.4,355Z" transform="translate(96 1)" style="fill:#6c6c6c"/><path d="M43.4,347.7h0a0.27,0.27,0,0,1-.3-0.3h0a0.32,0.32,0,0,1,.3-0.3h0a0.27,0.27,0,0,1,.3.3h0A0.45,0.45,0,0,1,43.4,347.7Z" transform="translate(96 1)" style="fill:#6c6c6c"/><path d="M51,347.5a0.62,0.62,0,0,1,.8-0.5,0.76,0.76,0,0,1,.4.2l3.4,3.3L56,351l-0.5.5-3.4,3.3a0.71,0.71,0,0,1-1-1L54,351l-2.9-2.8A1.48,1.48,0,0,1,51,347.5Z" transform="translate(96 1)" style="fill:#fff"/><path d="M51.4,355h0a0.27,0.27,0,0,1-.3-0.3h0a0.32,0.32,0,0,1,.3-0.3h0a0.27,0.27,0,0,1,.3.3h0A0.45,0.45,0,0,1,51.4,355Z" transform="translate(96 1)" style="fill:#fff"/><path d="M51.4,347.7h0a0.27,0.27,0,0,1-.3-0.3h0a0.32,0.32,0,0,1,.3-0.3h0a0.27,0.27,0,0,1,.3.3h0A0.45,0.45,0,0,1,51.4,347.7Z" transform="translate(96 1)" style="fill:#fff"/><path d="M252.2,74h6.6a2.46,2.46,0,0,1,2.2,2.6v5.8a2.46,2.46,0,0,1-2.2,2.6h-6.6a2.46,2.46,0,0,1-2.2-2.6V76.6A2.46,2.46,0,0,1,252.2,74Z" transform="translate(96 1)" style="fill:#e6e6e6"/><path d="M252,75h7a0.94,0.94,0,0,1,1,1v7a0.94,0.94,0,0,1-1,1h-7a0.94,0.94,0,0,1-1-1V76A0.94,0.94,0,0,1,252,75Z" transform="translate(96 1)" style="fill:#fff"/><path d="M254,79h3c0.6,0,1,.2,1,0.5h0c0,0.3-.4.5-1,0.5h-3c-0.6,0-1-.2-1-0.5h0C253,79.2,253.4,79,254,79Z" transform="translate(96 1)" style="fill:#6c6c6c"/><path d="M237.5,74h8a1.66,1.66,0,0,1,1.5,1.7v7.6a1.59,1.59,0,0,1-1.5,1.7h-8a1.66,1.66,0,0,1-1.5-1.7V75.7A1.66,1.66,0,0,1,237.5,74Z" transform="translate(96 1)" style="fill:#e6e6e6"/><path d="M238,75h7a0.94,0.94,0,0,1,1,1v7a0.94,0.94,0,0,1-1,1h-7a0.94,0.94,0,0,1-1-1V76A0.94,0.94,0,0,1,238,75Z" transform="translate(96 1)" style="fill:#fff"/><path d="M240,79h3c0.6,0,1,.2,1,0.5h0c0,0.3-.4.5-1,0.5h-3c-0.6,0-1-.2-1-0.5h0C239,79.2,239.4,79,240,79Z" transform="translate(96 1)" style="fill:#6c6c6c"/><path d="M242,78v3c0,0.6-.2,1-0.5,1h0c-0.3,0-.5-0.4-0.5-1V78c0-.6.2-1,0.5-1h0C241.8,77,242,77.4,242,78Z" transform="translate(96 1)" style="fill:#6c6c6c"/><image width="2" height="2" transform="translate(390 105)" xlink:href="6677CB00.png" style="isolation:isolate"/><path d="M0,0" transform="translate(96 1)" style="fill:none;isolation:isolate"/><image width="2" height="2" transform="translate(386 105)" xlink:href="6677CB01.png" style="isolation:isolate"/><path d="M0,0" transform="translate(96 1)" style="fill:none;isolation:isolate"/><rect x="329" y="132" width="15" height="25" style="fill:#e2e2e2"/><rect x="324" y="95" width="2" height="24" style="fill:none"/><rect x="324" y="101" width="2" height="2" style="fill:#e6e6e6"/><rect x="324" y="106" width="2" height="2" style="fill:#e6e6e6"/><rect x="324" y="111" width="2" height="2" style="fill:#e6e6e6"/><rect x="329" y="106" width="24" height="2" style="fill:none"/><rect x="345" y="106" width="2" height="2" style="fill:#e6e6e6"/><rect x="340" y="106" width="2" height="2" style="fill:#e6e6e6"/><rect x="335" y="106" width="2" height="2" style="fill:#e6e6e6"/><path d="M227,201h22a4,4,0,0,1,4,4h0a4,4,0,0,1-4,4H227a4,4,0,0,1-4-4h0A4,4,0,0,1,227,201Z" transform="translate(96 1)" style="fill:#e2e2e2"/><path d="M242,218v22a4,4,0,0,1-4,4h0a4,4,0,0,1-4-4V218a4,4,0,0,1,4-4h0A4,4,0,0,1,242,218Z" transform="translate(96 1)" style="fill:#e2e2e2"/><rect x="353" y="201" width="32" height="10" style="fill:none"/><path d="M262,201h22a4,4,0,0,1,4,4h0a4,4,0,0,1-4,4H262a4,4,0,0,1-4-4h0A4,4,0,0,1,262,201Z" transform="translate(96 1)" style="fill:#e6e6e6"/><circle cx="331.5" cy="264.5" r="7" style="fill:#fff;stroke:#e3e3e3"/><circle cx="350.5" cy="264.5" r="7" style="fill:#e2e2e2;stroke:#e2e2e2"/><circle cx="369.5" cy="264.5" r="7" style="fill:#fbfbfb;stroke:#fbfbfb"/><circle cx="369.5" cy="264.5" r="7" style="fill:#fff;stroke:#e3e3e3;opacity:0.550000011920929;isolation:isolate"/><rect x="312" y="277" width="34" height="15" style="fill:none"/><path d="M223.5,281h19a2.48,2.48,0,0,1,2.5,2.5h0a2.48,2.48,0,0,1-2.5,2.5h-19a2.48,2.48,0,0,1-2.5-2.5h0A2.48,2.48,0,0,1,223.5,281Z" transform="translate(96 1)" style="fill:#e6e6e6"/><rect x="321" y="287" width="15" height="34" style="fill:none"/><path d="M235,293.5v19a2.48,2.48,0,0,1-2.5,2.5h0a2.48,2.48,0,0,1-2.5-2.5v-19a2.48,2.48,0,0,1,2.5-2.5h0A2.48,2.48,0,0,1,235,293.5Z" transform="translate(96 1)" style="fill:#e6e6e6"/><rect x="295" y="371" width="28" height="13" style="fill:none"/><path d="M204,374h18a3,3,0,0,1,3,3h0a3,3,0,0,1-3,3H204a3,3,0,0,1-3-3h0A3,3,0,0,1,204,374Z" transform="translate(96 1)" style="fill:#d8d8d8"/><rect x="501.5" y="7.5" width="9" height="9" style="fill:#fff;stroke:#e9e9e9"/><g style="clip-path:url(#bg)"><rect x="519" y="7" width="30" height="33" style="fill:#e9e9e9"/></g><g style="clip-path:url(#bg)"><polygon points="520 8 548 8 548 8 548 39 548 39 520 39 520 39 520 8" style="fill:#fff"/></g><g style="clip-path:url(#bi)"><rect x="551" y="7" width="33" height="30" style="fill:#e9e9e9"/></g><g style="clip-path:url(#bi)"><polygon points="583 8 583 36 583 36 552 36 552 36 552 8 552 8 583 8" style="fill:#fff"/></g><g style="clip-path:url(#bk)"><rect x="519" y="38" width="30" height="33" style="fill:#e9e9e9"/></g><g style="clip-path:url(#bk)"><polygon points="520 70 548 70 548 70 548 39 548 39 520 39 520 39 520 70" style="fill:#fff"/></g><g style="clip-path:url(#bm)"><rect x="554" y="41" width="33" height="30" style="fill:#e9e9e9"/></g><g style="clip-path:url(#bm)"><polygon points="555 70 555 42 555 42 586 42 586 42 586 70 586 70 555 70" style="fill:#fff"/></g><rect x="501" y="20" width="4" height="2" style="fill:none"/><rect x="502" y="20" width="2" height="2" style="fill:#fff"/><rect x="506" y="19" width="2" height="4" style="fill:none"/><rect x="506" y="20" width="2" height="2" style="fill:#fff"/><g style="clip-path:url(#bo)"><rect x="514.5" y="110.5" width="23" height="33" style="fill:#f5f5f5;stroke:#e9e9e9"/></g><rect x="544" y="112" width="24" height="32" style="fill:#f7f7f7"/><rect x="544" y="143" width="24" height="1" style="fill:#e9e9e9"/><rect x="524" y="197" width="10" height="28" style="fill:#fff"/><rect x="533" y="197" width="1" height="28" style="opacity:0.05000000074505806;isolation:isolate"/><rect x="544" y="197" width="15" height="15" style="fill:none"/><image width="10" height="10" transform="translate(524 245)" xlink:href="6677CB06.png" style="isolation:isolate"/><path d="M0,0" transform="translate(96 1)" style="fill:none;isolation:isolate"/><image width="2" height="1" transform="translate(539 247)" xlink:href="6677CB07.png" style="isolation:isolate"/><path d="M0,0" transform="translate(96 1)" style="fill:none;isolation:isolate"/><image width="2" height="1" transform="translate(539 250)" xlink:href="6677CB05.png" style="isolation:isolate"/><path d="M0,0" transform="translate(96 1)" style="fill:none;isolation:isolate"/><rect x="359" y="132" width="25" height="15" style="fill:#fff"/><rect x="359" y="132" width="1" height="15" style="fill:#e0e0e0"/><rect x="383" y="132" width="1" height="15" style="fill:#e0e0e0"/><rect x="359" y="132" width="25" height="1" style="fill:#e0e0e0"/><rect x="365" y="214" width="10" height="32" style="fill:none"/><path d="M278,218v22a4,4,0,0,1-4,4h0a4,4,0,0,1-4-4V218a4,4,0,0,1,4-4h0A4,4,0,0,1,278,218Z" transform="translate(96 1)" style="fill:#e6e6e6"/><rect x="99" y="131" width="26" height="24" style="fill:#ebebeb"/><path d="M6.5,130.5h19a3,3,0,0,1,3,3v17a3,3,0,0,1-3,3H6.5a3,3,0,0,1-3-3v-17A3,3,0,0,1,6.5,130.5Z" transform="translate(96 1)" style="fill:none;stroke:#e6e6e6"/><path d="M6.5,131h19a2.48,2.48,0,0,1,2.5,2.5v17a2.48,2.48,0,0,1-2.5,2.5H6.5A2.48,2.48,0,0,1,4,150.5v-17A2.48,2.48,0,0,1,6.5,131Z" transform="translate(96 1)" style="fill:#fff"/><rect x="133" y="131" width="26" height="24" style="fill:#ebebeb"/><path d="M40.5,130.5h19a3,3,0,0,1,3,3v17a3,3,0,0,1-3,3h-19a3,3,0,0,1-3-3v-17A3,3,0,0,1,40.5,130.5Z" transform="translate(96 1)" style="fill:none;stroke:#e2e2e2"/><path d="M40.5,131h19a2.48,2.48,0,0,1,2.5,2.5v17a2.48,2.48,0,0,1-2.5,2.5h-19a2.48,2.48,0,0,1-2.5-2.5v-17A2.48,2.48,0,0,1,40.5,131Z" transform="translate(96 1)" style="fill:#fff"/><rect x="167" y="131" width="26" height="24" style="fill:#ebebeb"/><path d="M74.5,131h19a2.48,2.48,0,0,1,2.5,2.5v17a2.48,2.48,0,0,1-2.5,2.5h-19a2.48,2.48,0,0,1-2.5-2.5v-17A2.48,2.48,0,0,1,74.5,131Z" transform="translate(96 1)" style="fill:#fcfcfc"/><path d="M74.5,130.5h19a3,3,0,0,1,3,3v17a3,3,0,0,1-3,3h-19a3,3,0,0,1-3-3v-17A3,3,0,0,1,74.5,130.5Z" transform="translate(96 1)" style="fill:none;stroke:#e6e6e6;opacity:0.550000011920929;isolation:isolate"/><rect x="573" y="112" width="24" height="32" style="fill:#ebebeb"/><rect x="573" y="143" width="24" height="1" style="fill:#ddd"/><rect x="386.5" y="79.5" width="4" height="4" style="fill:none;stroke:#e6e6e6;stroke-opacity:0.6735000014305115"/><rect x="343" y="277" width="34" height="15" style="fill:none"/><path d="M254.5,281h19a2.48,2.48,0,0,1,2.5,2.5h0a2.48,2.48,0,0,1-2.5,2.5h-19a2.48,2.48,0,0,1-2.5-2.5h0A2.48,2.48,0,0,1,254.5,281Z" transform="translate(96 1)" style="fill:#e2e2e2"/><rect x="352" y="287" width="15" height="34" style="fill:none"/><path d="M266,293.5v19a2.48,2.48,0,0,1-2.5,2.5h0a2.48,2.48,0,0,1-2.5-2.5v-19a2.48,2.48,0,0,1,2.5-2.5h0A2.48,2.48,0,0,1,266,293.5Z" transform="translate(96 1)" style="fill:#e2e2e2"/><rect x="295" y="358" width="28" height="13" style="fill:none"/><path d="M204,361h18a3,3,0,0,1,3,3h0a3,3,0,0,1-3,3H204a3,3,0,0,1-3-3h0A3,3,0,0,1,204,361Z" transform="translate(96 1)" style="fill:#e2e2e2"/><rect x="295" y="345" width="28" height="13" style="fill:none"/><path d="M204,348h18a3,3,0,0,1,3,3h0a3,3,0,0,1-3,3H204a3,3,0,0,1-3-3h0A3,3,0,0,1,204,348Z" transform="translate(96 1)" style="fill:#bfbfbf"/><rect x="364" y="343" width="13" height="28" style="fill:none"/><path d="M272,365V347a3,3,0,0,1,3-3h0a3,3,0,0,1,3,3v18a3,3,0,0,1-3,3h0A3,3,0,0,1,272,365Z" transform="translate(96 1)" style="fill:#d8d8d8"/><rect x="351" y="343" width="13" height="28" style="fill:none"/><path d="M259,365V347a3,3,0,0,1,3-3h0a3,3,0,0,1,3,3v18a3,3,0,0,1-3,3h0A3,3,0,0,1,259,365Z" transform="translate(96 1)" style="fill:#e2e2e2"/><rect x="338" y="343" width="13" height="28" style="fill:none"/><path d="M246,365V347a3,3,0,0,1,3-3h0a3,3,0,0,1,3,3v18a3,3,0,0,1-3,3h0A3,3,0,0,1,246,365Z" transform="translate(96 1)" style="fill:#bfbfbf"/><rect x="344" y="377" width="15" height="15" style="fill:#fcfcfc"/><rect x="344" y="377" width="1" height="15" style="fill:#e3e3e3"/><rect x="365" y="377" width="15" height="15" style="fill:#fcfcfc"/><rect x="365" y="377" width="15" height="1" style="fill:#e3e3e3"/><rect x="377" y="343" width="13" height="28" style="fill:none"/><path d="M285,365V347a3,3,0,0,1,3-3h0a3,3,0,0,1,3,3v18a3,3,0,0,1-3,3h0A3,3,0,0,1,285,365Z" transform="translate(96 1)" style="fill:#ededed"/><rect x="295" y="384" width="28" height="13" style="fill:none"/><path d="M204,387h18a3,3,0,0,1,3,3h0a3,3,0,0,1-3,3H204a3,3,0,0,1-3-3h0A3,3,0,0,1,204,387Z" transform="translate(96 1)" style="fill:#ededed"/><path d="M222.9,34a1.9,1.9,0,0,0-1.9,1.9v9.3a1.9,1.9,0,0,0,1.9,1.9h9.3a1.9,1.9,0,0,0,1.9-1.9v-9.3a1.9,1.9,0,0,0-1.9-1.9h-9.3Zm0.1,1h9a1.08,1.08,0,0,1,1,1v9a1.08,1.08,0,0,1-1,1l-9.1-.1A0.9,0.9,0,0,1,222,45V36A1.08,1.08,0,0,1,223,35Z" transform="translate(96 1)" style="fill:#fff;opacity:0.5;isolation:isolate"/><path d="M223,35h9a0.94,0.94,0,0,1,1,1v9a0.94,0.94,0,0,1-1,1h-9a0.94,0.94,0,0,1-1-1V36A1,1,0,0,1,223,35Z" transform="translate(96 1)" style="fill:#fff;fill-opacity:0.11760000139474869;opacity:0.5;isolation:isolate"/><path d="M255,34h9a2,2,0,0,1,2,2v9a2,2,0,0,1-2,2h-9a2,2,0,0,1-2-2V36A2,2,0,0,1,255,34Z" transform="translate(96 1)" style="fill:#fff"/><path d="M256.77,39.4L259.38,42a0.68,0.68,0,0,1,0,1l-0.49.49a0.68,0.68,0,0,1-1,0l-2.62-2.62a0.68,0.68,0,0,1,0-1l0.49-.49A0.84,0.84,0,0,1,256.77,39.4Z" transform="translate(96 1)" style="fill:#e2e2e2"/><rect x="256.53" y="39.43" width="8" height="2" transform="translate(143.72 197.06) rotate(-45)" style="fill:#e2e2e2"/><rect x="256.49" y="38.36" width="1" height="3" transform="translate(143.09 194.39) rotate(-45)" style="fill:#eee;fill-opacity:0"/><path d="M221,55.5a6.5,6.5,0,1,0,6.5-6.5A6.49,6.49,0,0,0,221,55.5Zm1-.1a5.34,5.34,0,0,1,5.5-5.4,5.5,5.5,0,0,1,0,11A5.51,5.51,0,0,1,222,55.4Z" transform="translate(96 1)" style="fill:#fff"/><path d="M227.49,50h0A5.48,5.48,0,0,1,233,55.5h0A5.51,5.51,0,0,1,227.49,61h0A5.48,5.48,0,0,1,222,55.5h0A5.51,5.51,0,0,1,227.49,50Z" transform="translate(96 1)" style="fill:#fff;fill-opacity:0.11760000139474869"/><path d="M259.5,49h0A6.49,6.49,0,0,1,266,55.5h0A6.49,6.49,0,0,1,259.5,62h0A6.49,6.49,0,0,1,253,55.5h0A6.49,6.49,0,0,1,259.5,49Z" transform="translate(96 1)" style="fill:#fff"/><path d="M259.5,53h0a2.48,2.48,0,0,1,2.5,2.5h0a2.48,2.48,0,0,1-2.5,2.5h0a2.48,2.48,0,0,1-2.5-2.5h0A2.48,2.48,0,0,1,259.5,53Z" transform="translate(96 1)" style="fill:#e2e2e2"/><path d="M2,35V61H30V35H2Zm2,2H28V59H4V37Z" transform="translate(96 1)" style="fill:#f7f7f7"/><path d="M3,36V60H29V36H3Zm3.5,1h19A2.48,2.48,0,0,1,28,39.5v17A2.48,2.48,0,0,1,25.5,59H6.5A2.48,2.48,0,0,1,4,56.5v-17A2.48,2.48,0,0,1,6.5,37Z" transform="translate(96 1)" style="fill:#f7f7f7"/><path d="M6.5,36.5h19a3,3,0,0,1,3,3v17a3,3,0,0,1-3,3H6.5a3,3,0,0,1-3-3v-17A3,3,0,0,1,6.5,36.5Z" transform="translate(96 1)" style="fill:none;stroke:#e6e6e6"/><path d="M36,35V61H64V35H36Zm2,2H62V59H38V37Z" transform="translate(96 1)" style="fill:#f7f7f7"/><path d="M37,36V60H63V36H37Zm3.5,1h19A2.48,2.48,0,0,1,62,39.5v17A2.48,2.48,0,0,1,59.5,59h-19A2.48,2.48,0,0,1,38,56.5v-17A2.48,2.48,0,0,1,40.5,37Z" transform="translate(96 1)" style="fill:#f7f7f7"/><path d="M40.5,36.5h19a3,3,0,0,1,3,3v17a3,3,0,0,1-3,3h-19a3,3,0,0,1-3-3v-17A3,3,0,0,1,40.5,36.5Z" transform="translate(96 1)" style="fill:none;stroke:#e2e2e2"/><polygon points="170 39 176 39 176 39 176 57 176 57 170 57 170 57 170 39" style="fill:#fff"/><polygon points="183 39 189 39 189 39 189 57 189 57 183 57 183 57 183 39" style="fill:#fcfcfc"/></svg>