/* XPM */
static char * top_right_inactive_xpm[] = {
"2 28 4 1",
" 	g None",
".	g #252525",
"+	g #3B3B3B",
"@	g #343434",
". ",
"+.",
"@.",
"@.",
"@.",
"@.",
"@.",
"@.",
"@.",
"@.",
"@.",
"@.",
"@.",
"@.",
"@.",
"@.",
"@.",
"@.",
"@.",
"@.",
"@.",
"@.",
"@.",
"@.",
"@.",
"@.",
"@.",
"@."};
