/* XPM */
static char * C:\Users\ETi\Desktop\Git\arc_grey_theme\common\xfwm4\hide_prelight_xpm[] = {
"28 28 19 1",
" 	g None",
".	g #EFEFEF",
"+	g #E8E8E8",
"@	g #E6E6E6",
"#	g #DCDCDC",
"$	g #D6D6D6",
"%	g #D4D4D4",
"&	g #E1E1E1",
"*	g #D5D5D5",
"=	g #E4E4E4",
"-	g #F4F4F4",
";	g #FCFCFC",
">	g #D7D7D7",
",	g #F6F6F6",
"'	g #FDFDFD",
")	g #DDDDDD",
"!	g #7F7F7F",
"~	g #FBFBFB",
"{	g #F3F3F3",
"............................",
"++++++++++++++++++++++++++++",
"++++++++++++++++++++++++++++",
"++++++++++++++++++++++++++++",
"++++++++++++++++++++++++++++",
"++++++++++++++++++++++++++++",
"++++++++++++++++++++++++++++",
"++++++++++@#$%%$#@++++++++++",
"+++++++++&*=-;;-=*&+++++++++",
"++++++++&>,'''''',>&++++++++",
"+++++++@*,'''''''',*@+++++++",
"+++++++#=''''''''''=)+++++++",
"+++++++$-''''''''''-$+++++++",
"+++++++%;''!!!!!!'';%+++++++",
"+++++++%;''!!!!!!''~%+++++++",
"+++++++$-''''''''''-$+++++++",
"+++++++#=''''''''''=)+++++++",
"+++++++@*,'''''''',*@+++++++",
"++++++++&>,'''''',>&++++++++",
"+++++++++&*=-;;{=*&+++++++++",
"++++++++++@)$%%$)@++++++++++",
"++++++++++++++++++++++++++++",
"++++++++++++++++++++++++++++",
"++++++++++++++++++++++++++++",
"++++++++++++++++++++++++++++",
"++++++++++++++++++++++++++++",
"++++++++++++++++++++++++++++",
"++++++++++++++++++++++++++++"};
