/* XPM */
static char * C:\Users\ETi\Desktop\Git\arc_grey_theme\common\xfwm4\maximize_inactive_xpm[] = {
"28 28 10 1",
" 	g None",
".	g #EFEFEF",
"+	g #E8E8E8",
"@	g #E7E7E7",
"#	g #C8C8C8",
"$	g #B8B8B8",
"%	g #C2C2C2",
"&	g #C7C7C7",
"*	g #E6E6E6",
"=	g #C1C1C1",
"............................",
"++++++++++++++++++++++++++++",
"++++++++++++++++++++++++++++",
"++++++++++++++++++++++++++++",
"++++++++++++++++++++++++++++",
"++++++++++++++++++++++++++++",
"++++++++++++++++++++++++++++",
"++++++++++++++++++++++++++++",
"++++++++++++++++++++++++++++",
"++++++++++++++++++++++++++++",
"++++++++++++++++++++++++++++",
"++++++++++++@#$$%+++++++++++",
"+++++++++++@+@#$$+++++++++++",
"++++++++++@&*+@#$+++++++++++",
"++++++++++@$&*+@#+++++++++++",
"++++++++++@$$#@+@+++++++++++",
"+++++++++++=$$#@++++++++++++",
"++++++++++++++++++++++++++++",
"++++++++++++++++++++++++++++",
"++++++++++++++++++++++++++++",
"++++++++++++++++++++++++++++",
"++++++++++++++++++++++++++++",
"++++++++++++++++++++++++++++",
"++++++++++++++++++++++++++++",
"++++++++++++++++++++++++++++",
"++++++++++++++++++++++++++++",
"++++++++++++++++++++++++++++",
"++++++++++++++++++++++++++++"};
